<svg width="21" height="21" viewBox="0 0 21 21" fill="none" xmlns="http://www.w3.org/2000/svg">
<path d="M13.125 18.375V13.65C13.125 13.16 13.125 12.9149 13.0296 12.7278C12.9457 12.5631 12.8119 12.4293 12.6472 12.3454C12.4601 12.25 12.215 12.25 11.725 12.25H9.275C8.78495 12.25 8.53993 12.25 8.35276 12.3454C8.18812 12.4293 8.05426 12.5631 7.97037 12.7278C7.875 12.9149 7.875 13.16 7.875 13.65V18.375M2.625 6.125C2.625 7.57475 3.80025 8.75 5.25 8.75C6.69975 8.75 7.875 7.57475 7.875 6.125C7.875 7.57475 9.05025 8.75 10.5 8.75C11.9497 8.75 13.125 7.57475 13.125 6.125C13.125 7.57475 14.3003 8.75 15.75 8.75C17.1997 8.75 18.375 7.57475 18.375 6.125M5.425 18.375H15.575C16.5551 18.375 17.0451 18.375 17.4195 18.1843C17.7488 18.0165 18.0165 17.7488 18.1843 17.4195C18.375 17.0451 18.375 16.5551 18.375 15.575V5.425C18.375 4.44491 18.375 3.95486 18.1843 3.58052C18.0165 3.25123 17.7488 2.98352 17.4195 2.81574C17.0451 2.625 16.5551 2.625 15.575 2.625H5.425C4.44491 2.625 3.95486 2.625 3.58052 2.81574C3.25123 2.98352 2.98352 3.25123 2.81574 3.58052C2.625 3.95486 2.625 4.44491 2.625 5.425V15.575C2.625 16.5551 2.625 17.0451 2.81574 17.4195C2.98352 17.7488 3.25123 18.0165 3.58052 18.1843C3.95486 18.375 4.44491 18.375 5.425 18.375Z" stroke="#3C9939" stroke-width="2" stroke-linecap="round" stroke-linejoin="round"/>
</svg>
