<svg width="21" height="21" viewBox="0 0 21 21" fill="none" xmlns="http://www.w3.org/2000/svg">
<path d="M14 14V5.425C14 4.44491 14 3.95486 13.8093 3.58052C13.6415 3.25123 13.3738 2.98352 13.0445 2.81574C12.6701 2.625 12.1801 2.625 11.2 2.625H4.55C3.56991 2.625 3.07986 2.625 2.70552 2.81574C2.37623 2.98352 2.10852 3.25123 1.94074 3.58052C1.75 3.95486 1.75 4.44491 1.75 5.425V11.2C1.75 12.1801 1.75 12.6701 1.94074 13.0445C2.10852 13.3738 2.37623 13.6415 2.70552 13.8093C3.07986 14 3.56991 14 4.55 14H14ZM14 14H17.85C18.34 14 18.5851 14 18.7722 13.9046C18.9369 13.8207 19.0707 13.6869 19.1546 13.5222C19.25 13.3351 19.25 13.09 19.25 12.6V10.2049C19.25 9.99088 19.25 9.88387 19.2258 9.78317C19.2044 9.69389 19.169 9.60854 19.1211 9.53025C19.0669 9.44195 18.9913 9.36628 18.8399 9.21495L17.0351 7.41005C16.8837 7.25872 16.8081 7.18305 16.7197 7.12894C16.6415 7.08096 16.5561 7.04561 16.4668 7.02418C16.3661 7 16.2591 7 16.0451 7H14M7.875 16.1875C7.875 17.3956 6.89562 18.375 5.6875 18.375C4.47938 18.375 3.5 17.3956 3.5 16.1875C3.5 14.9794 4.47938 14 5.6875 14C6.89562 14 7.875 14.9794 7.875 16.1875ZM17.5 16.1875C17.5 17.3956 16.5206 18.375 15.3125 18.375C14.1044 18.375 13.125 17.3956 13.125 16.1875C13.125 14.9794 14.1044 14 15.3125 14C16.5206 14 17.5 14.9794 17.5 16.1875Z" stroke="#3C9939" stroke-width="2" stroke-linecap="round" stroke-linejoin="round"/>
</svg>
