<svg width="52" height="52" viewBox="0 0 52 52" fill="none" xmlns="http://www.w3.org/2000/svg">
<rect width="52" height="52" rx="26" fill="#3C9939"/>
<path d="M11.8672 34V16.9375H17.9727C19.7539 16.9375 21.1367 17.3047 22.1211 18.0391C23.1133 18.7656 23.6094 19.8867 23.6094 21.4023C23.6094 22.3555 23.3867 23.1367 22.9414 23.7461C22.5039 24.3555 21.957 24.7734 21.3008 25V25.0469C22.1133 25.2734 22.7812 25.7305 23.3047 26.418C23.8281 27.0977 24.0898 28 24.0898 29.125C24.0898 30.6719 23.5625 31.8711 22.5078 32.7227C21.4531 33.5742 20.0508 34 18.3008 34H11.8672ZM14.9727 31.7148H18.1016C19.0781 31.7148 19.793 31.4688 20.2461 30.9766C20.707 30.4766 20.9375 29.8086 20.9375 28.9727C20.9375 28.1289 20.707 27.4609 20.2461 26.9688C19.793 26.4766 19.0781 26.2305 18.1016 26.2305H14.9727V31.7148ZM14.9727 24.1094H17.7852C18.7461 24.1094 19.4414 23.8945 19.8711 23.4648C20.3008 23.0273 20.5156 22.4219 20.5156 21.6484C20.5156 20.875 20.3008 20.2852 19.8711 19.8789C19.4414 19.4648 18.7461 19.2578 17.7852 19.2578H14.9727V24.1094ZM28.7422 16.9375H40.1328V34H36.9805V19.4102H31.4141L30.9805 27.6719C30.8633 29.8359 30.5039 31.4844 29.9023 32.6172C29.3008 33.75 28.1992 34.3164 26.5977 34.3164C26.3477 34.3164 26.1016 34.3008 25.8594 34.2695C25.625 34.2383 25.3906 34.1875 25.1562 34.1172V31.4219C25.3281 31.4844 25.4844 31.5273 25.625 31.5508C25.7656 31.5664 25.918 31.5742 26.082 31.5742C26.8242 31.5742 27.3438 31.2539 27.6406 30.6133C27.9375 29.9648 28.125 28.8398 28.2031 27.2383L28.7422 16.9375Z" fill="white"/>
</svg>
