<svg width="16" height="16" viewBox="0 0 16 16" fill="none" xmlns="http://www.w3.org/2000/svg">
<path d="M12.3704 15.6534C12.1803 15.6534 11.9911 15.595 11.8283 15.4788L8.0001 12.7334L4.17188 15.4788C4.01327 15.5929 3.82266 15.654 3.62727 15.6533C3.43188 15.6526 3.2417 15.5902 3.08388 15.475C2.92592 15.3605 2.80809 15.1991 2.74718 15.0137C2.68626 14.8283 2.68536 14.6285 2.74459 14.4426L4.17235 9.83457L0.378477 7.16117C0.221245 7.04513 0.104476 6.8826 0.0446854 6.69655C-0.0151049 6.51051 -0.0148893 6.31038 0.0453015 6.12447C0.105967 5.939 0.223384 5.7773 0.380956 5.6622C0.538529 5.5471 0.728289 5.48444 0.923416 5.48306L5.62222 5.476L7.11822 0.982367C7.17996 0.79725 7.29837 0.636247 7.45668 0.522159C7.615 0.408071 7.80519 0.34668 8.00033 0.34668C8.19547 0.34668 8.38567 0.408071 8.54398 0.522159C8.7023 0.636247 8.82071 0.79725 8.88245 0.982367L10.353 5.476L15.0758 5.48306C15.2712 5.48416 15.4612 5.54679 15.619 5.66206C15.7767 5.77733 15.8941 5.93938 15.9545 6.12517C16.0149 6.31097 16.0152 6.51107 15.9554 6.69704C15.8955 6.88302 15.7786 7.04542 15.6212 7.16117L11.8274 9.83457L13.2551 14.4426C13.3145 14.6284 13.3137 14.8283 13.2529 15.0136C13.192 15.199 13.0743 15.3605 12.9163 15.475C12.758 15.5911 12.5668 15.6536 12.3704 15.6534Z" fill="#D9D9D9"/>
</svg>
