<svg width="102" height="102" viewBox="0 0 102 102" fill="none" xmlns="http://www.w3.org/2000/svg">
<g clip-path="url(#clip0_40_361)">
<path d="M102 51C101.701 68.0531 98.693 81.7793 90.1066 90.1066C81.7793 98.693 68.0531 101.701 51 102C33.9469 101.701 20.2207 98.693 11.8934 90.1066C3.30703 81.7793 0.298828 68.0531 0 51C0.298828 33.9469 3.30703 20.2207 11.8934 11.8934C20.2207 3.30703 33.9469 0.298828 51 0C68.0531 0.298828 81.7793 3.30703 90.1066 11.8934C98.693 20.2207 101.701 33.9469 102 51Z" fill="#2197D5"/>
<path fill-rule="evenodd" clip-rule="evenodd" d="M73.1244 27.0514C73.0193 27.0938 61.3225 31.6069 47.1315 37.0805C32.9405 42.5541 21.1579 47.1311 20.9478 47.2519C19.8198 47.9002 19.6717 49.4084 20.6486 50.299C20.9152 50.5421 33.9365 55.1076 34.3493 55.1028C34.4322 55.1018 41.456 50.8121 49.9578 45.5702C58.4597 40.3283 65.5652 36.0162 65.7479 35.9878C66.3028 35.9014 66.3102 36.2862 65.7646 36.855C65.5026 37.128 60.1566 42.107 53.8846 47.9192C46.8426 54.445 42.467 58.5888 42.4449 58.7531C42.4251 58.8994 42.2151 61.7073 41.9784 64.9927C41.5132 71.446 41.5122 71.4119 42.1854 71.7925C42.4367 71.9344 42.6136 71.9527 42.8535 71.8613C43.033 71.793 44.8422 70.1001 46.874 68.0993C49.3476 65.6633 50.6213 64.494 50.7292 64.5601C50.8178 64.6143 53.8216 66.8964 57.4042 69.6314C60.9869 72.3664 64.1067 74.7024 64.337 74.8224C64.6367 74.9787 64.9641 75.0256 65.4884 74.9874C66.4281 74.9189 67.1713 74.446 67.5244 73.6918C67.6639 73.3939 69.8738 63.5539 72.4351 51.8252C77.558 28.3673 77.3376 29.6002 76.6175 28.426C76.0655 27.5255 75.2367 27.0471 74.1589 27.0063C73.6951 26.9887 73.2295 27.009 73.1244 27.0514Z" fill="white"/>
</g>
<defs>
<clipPath id="clip0_40_361">
<rect width="102" height="102" fill="white"/>
</clipPath>
</defs>
</svg>
