<svg width="166" height="42" viewBox="0 0 166 42" fill="none" xmlns="http://www.w3.org/2000/svg">
<path fill-rule="evenodd" clip-rule="evenodd" d="M146.318 22.425C148.019 20.1808 150.732 18.4324 154.643 18.4324C158.483 18.4324 161.181 20.1598 162.892 22.3564C164.567 24.5067 165.304 27.1084 165.325 29.0032C165.334 29.8424 164.646 30.4487 163.891 30.4487H146.508C146.957 33.7908 149.224 36.0293 151.976 36.9432C155.093 37.9785 158.688 37.2704 160.879 34.5971C161.311 34.0707 162.087 33.9937 162.613 34.4252C163.14 34.8567 163.217 35.6332 162.785 36.1597C159.841 39.7512 155.117 40.5837 151.199 39.2825C147.242 37.9681 143.962 34.4331 143.962 29.2162C143.962 27.2743 144.653 24.62 146.318 22.425ZM146.538 27.9838H162.76C162.544 26.7192 161.972 25.1864 160.948 23.8711C159.654 22.2097 157.645 20.8973 154.643 20.8973C151.57 20.8973 149.559 22.23 148.282 23.9142C147.306 25.2017 146.756 26.7034 146.538 27.9838Z" fill="#050505"/>
<path fill-rule="evenodd" clip-rule="evenodd" d="M71.3177 22.425C73.0191 20.1808 75.7324 18.4324 79.643 18.4324C83.4832 18.4324 86.1813 20.1598 87.8922 22.3564C89.567 24.5067 90.3036 27.1084 90.3249 29.0032C90.3344 29.8424 89.6463 30.4487 88.8906 30.4487H71.5076C71.9566 33.7908 74.2241 36.0293 76.976 36.9432C80.0932 37.9785 83.6878 37.2704 85.879 34.5971C86.3105 34.0707 87.087 33.9937 87.6135 34.4252C88.1399 34.8567 88.2168 35.6332 87.7853 36.1597C84.8414 39.7512 80.1171 40.5837 76.1991 39.2825C72.2415 37.9681 68.9619 34.4331 68.9619 29.2162C68.9619 27.2743 69.6535 24.62 71.3177 22.425ZM71.5381 27.9838H87.7596C87.5439 26.7192 86.9721 25.1864 85.9476 23.8711C84.6536 22.2097 82.6452 20.8973 79.643 20.8973C76.5698 20.8973 74.5587 22.23 73.2818 23.9142C72.3057 25.2017 71.7562 26.7034 71.5381 27.9838Z" fill="#050505"/>
<path d="M29.169 18.0397C33.791 23.625 31.0563 39.807 16.8046 39.9983C-2.64452 40.2593 -3.30108 11.0007 17.0357 11.0007C18.6344 11.0007 20.0094 11.2037 21.157 11.4267M32.0574 9.08794C28.4753 12.3546 25.3554 12.2249 23.5451 11.9188C22.9074 11.8111 22.1107 11.612 21.157 11.4267M32.0574 9.08794C34.2914 7.05067 35.0617 3.54671 33.0203 2.43154C31.4796 1.5899 24.2769 1.28387 21.8503 8.32285C21.6192 9.89132 23.6722 7.07618 27.3583 7.40473C30.3626 7.67251 30.7863 8.09332 32.0574 9.08794ZM32.0574 9.08794C32.6994 9.30473 34.068 10.0214 34.407 11.1537C34.8306 12.5692 32.327 14.9028 29.6693 15.1323C27.0116 15.3618 24.6621 15.2191 21.157 11.4267" stroke="#3C9939" stroke-width="2.87568" stroke-linecap="round"/>
<path fill-rule="evenodd" clip-rule="evenodd" d="M100.764 18.4771C103.444 18.0005 106.685 18.7949 108.759 21.4787C109.175 22.0173 109.076 22.7913 108.537 23.2074C107.998 23.6236 107.224 23.5244 106.808 22.9858C105.39 21.1509 103.136 20.5588 101.195 20.9039C99.1835 21.2615 98.0267 22.4656 98.0267 23.7729C98.0267 24.6187 98.4231 25.2241 99.2913 25.8029C100.224 26.4249 101.51 26.8822 103.008 27.4125L103.031 27.4206C104.437 27.9183 106.045 28.4873 107.286 29.3445C108.602 30.2524 109.632 31.5732 109.632 33.5297C109.632 37.1108 106.616 39.1432 103.612 39.5886C100.579 40.0385 96.9445 39.0163 95.0279 35.9249C94.6693 35.3464 94.8475 34.5867 95.426 34.228C96.0045 33.8694 96.7642 34.0476 97.1228 34.6261C98.39 36.6699 100.918 37.4965 103.251 37.1504C105.614 36.8 107.167 35.3918 107.167 33.5297C107.167 32.6105 106.747 31.9671 105.886 31.373C104.959 30.7328 103.676 30.2635 102.186 29.7361C102.136 29.7184 102.086 29.7007 102.035 29.6829C100.668 29.1994 99.1228 28.653 97.924 27.8538C96.6161 26.9818 95.5619 25.7001 95.5619 23.7729C95.5619 20.7667 98.1538 18.9411 100.764 18.4771Z" fill="#050505"/>
<path fill-rule="evenodd" clip-rule="evenodd" d="M139.855 11.2432C140.535 11.2432 141.087 11.795 141.087 12.4757L141.087 38.3568C141.087 39.0374 140.535 39.5892 139.855 39.5892C139.174 39.5892 138.622 39.0374 138.622 38.3568L138.622 12.4757C138.622 11.795 139.174 11.2432 139.855 11.2432Z" fill="#050505"/>
<path fill-rule="evenodd" clip-rule="evenodd" d="M49.9619 13.7081V27.6757H58.8534C62.4889 26.7676 64.3251 23.7156 64.3352 20.637C64.3452 17.5314 62.5025 14.5568 58.7785 13.8451C58.3015 13.754 57.817 13.7081 57.3314 13.7081H49.9619ZM58.3663 30.1405H49.9619V38.6649C49.9619 39.3455 49.4102 39.8973 48.7295 39.8973C48.0488 39.8973 47.4971 39.3455 47.4971 38.6649V12.6811C47.4971 11.887 48.1408 11.2432 48.9349 11.2432H57.3314C57.9723 11.2432 58.6117 11.3038 59.2412 11.4241C64.3044 12.3917 66.8133 16.5403 66.8 20.645C66.7883 24.2439 64.8415 27.9312 60.9813 29.559L66.9857 37.9475C67.3819 38.501 67.2544 39.2708 66.7009 39.667C66.1474 40.0632 65.3776 39.9357 64.9814 39.3822L58.3663 30.1405Z" fill="#050505"/>
<path fill-rule="evenodd" clip-rule="evenodd" d="M132.843 18.4324C133.524 18.4324 134.075 18.9842 134.075 19.6649L134.075 38.3568C134.075 39.0374 133.524 39.5892 132.843 39.5892C132.162 39.5892 131.611 39.0374 131.611 38.3568L131.611 19.6649C131.611 18.9842 132.162 18.4324 132.843 18.4324Z" fill="#050505"/>
<path fill-rule="evenodd" clip-rule="evenodd" d="M123.189 37.3297C127.727 37.3297 131.405 33.6512 131.405 29.1135C131.405 24.5758 127.727 20.8973 123.189 20.8973C118.651 20.8973 114.973 24.5758 114.973 29.1135C114.973 33.6512 118.651 37.3297 123.189 37.3297ZM123.189 39.7946C129.088 39.7946 133.87 35.0125 133.87 29.1135C133.87 23.2145 129.088 18.4324 123.189 18.4324C117.29 18.4324 112.508 23.2145 112.508 29.1135C112.508 35.0125 117.29 39.7946 123.189 39.7946Z" fill="#050505"/>
<circle cx="39.897" cy="15.2486" r="1.54054" fill="#3C9939"/>
<path d="M39.8975 19.6649L39.8975 38.5622" stroke="#050505" stroke-width="2.46486" stroke-linecap="round"/>
</svg>
